<mxfile host="Electron" modified="2024-09-15T17:33:56.532Z" agent="Mozilla/5.0 (Windows NT 10.0; Win64; x64) AppleWebKit/537.36 (KHTML, like Gecko) draw.io/21.6.8 Chrome/114.0.5735.289 Electron/25.5.0 Safari/537.36" etag="Mx-ANEmYzn_Z-pRhvc3R" version="21.6.8" type="device">
  <diagram name="Страница — 1" id="vkr-5ie40hmDFnKBlWFc">
    <mxGraphModel dx="873" dy="852" grid="1" gridSize="10" guides="1" tooltips="1" connect="1" arrows="1" fold="1" page="1" pageScale="1" pageWidth="827" pageHeight="1169" math="0" shadow="0">
      <root>
        <mxCell id="0" />
        <mxCell id="1" parent="0" />
        <mxCell id="FzYCfsB_Ygolb3LKtRlU-59" value="" style="rounded=0;whiteSpace=wrap;html=1;" vertex="1" parent="1">
          <mxGeometry x="80" y="550" width="630" height="210" as="geometry" />
        </mxCell>
        <mxCell id="FzYCfsB_Ygolb3LKtRlU-58" value="" style="rounded=0;whiteSpace=wrap;html=1;" vertex="1" parent="1">
          <mxGeometry x="80" y="330" width="630" height="220" as="geometry" />
        </mxCell>
        <mxCell id="FzYCfsB_Ygolb3LKtRlU-7" value="" style="shape=datastore;whiteSpace=wrap;html=1;" vertex="1" parent="1">
          <mxGeometry x="305" y="480" width="40" height="40" as="geometry" />
        </mxCell>
        <mxCell id="FzYCfsB_Ygolb3LKtRlU-10" style="edgeStyle=orthogonalEdgeStyle;rounded=0;orthogonalLoop=1;jettySize=auto;html=1;exitX=1;exitY=0.5;exitDx=0;exitDy=0;" edge="1" parent="1" source="FzYCfsB_Ygolb3LKtRlU-8">
          <mxGeometry relative="1" as="geometry">
            <mxPoint x="200" y="445" as="targetPoint" />
          </mxGeometry>
        </mxCell>
        <mxCell id="FzYCfsB_Ygolb3LKtRlU-8" value="" style="ellipse;whiteSpace=wrap;html=1;aspect=fixed;" vertex="1" parent="1">
          <mxGeometry x="130" y="430" width="30" height="30" as="geometry" />
        </mxCell>
        <mxCell id="FzYCfsB_Ygolb3LKtRlU-9" value="Запрос" style="text;html=1;align=center;verticalAlign=middle;resizable=0;points=[];autosize=1;strokeColor=none;fillColor=none;" vertex="1" parent="1">
          <mxGeometry x="115" y="453" width="60" height="30" as="geometry" />
        </mxCell>
        <mxCell id="FzYCfsB_Ygolb3LKtRlU-14" style="edgeStyle=orthogonalEdgeStyle;rounded=0;orthogonalLoop=1;jettySize=auto;html=1;entryX=0;entryY=0.5;entryDx=0;entryDy=0;" edge="1" parent="1" source="FzYCfsB_Ygolb3LKtRlU-13" target="FzYCfsB_Ygolb3LKtRlU-25">
          <mxGeometry relative="1" as="geometry">
            <mxPoint x="390" y="445" as="targetPoint" />
          </mxGeometry>
        </mxCell>
        <mxCell id="FzYCfsB_Ygolb3LKtRlU-13" value="Создать запрос менеджера" style="rounded=1;whiteSpace=wrap;html=1;" vertex="1" parent="1">
          <mxGeometry x="200" y="422.5" width="100" height="45" as="geometry" />
        </mxCell>
        <mxCell id="FzYCfsB_Ygolb3LKtRlU-22" value="" style="html=1;verticalAlign=bottom;endArrow=open;dashed=1;endSize=8;edgeStyle=elbowEdgeStyle;elbow=vertical;curved=0;rounded=0;exitX=0.75;exitY=1;exitDx=0;exitDy=0;entryX=0;entryY=0.5;entryDx=0;entryDy=0;" edge="1" parent="1" source="FzYCfsB_Ygolb3LKtRlU-13" target="FzYCfsB_Ygolb3LKtRlU-7">
          <mxGeometry x="0.005" relative="1" as="geometry">
            <mxPoint x="290" y="510" as="sourcePoint" />
            <mxPoint x="270" y="550" as="targetPoint" />
            <mxPoint as="offset" />
            <Array as="points">
              <mxPoint x="300" y="500" />
            </Array>
          </mxGeometry>
        </mxCell>
        <mxCell id="FzYCfsB_Ygolb3LKtRlU-23" value="Запросы&lt;br&gt;менеждера" style="text;html=1;align=center;verticalAlign=middle;resizable=0;points=[];autosize=1;strokeColor=none;fillColor=none;" vertex="1" parent="1">
          <mxGeometry x="281" y="513" width="90" height="40" as="geometry" />
        </mxCell>
        <mxCell id="FzYCfsB_Ygolb3LKtRlU-43" style="edgeStyle=orthogonalEdgeStyle;rounded=0;orthogonalLoop=1;jettySize=auto;html=1;exitX=0.5;exitY=1;exitDx=0;exitDy=0;entryX=0.5;entryY=0;entryDx=0;entryDy=0;" edge="1" parent="1" source="FzYCfsB_Ygolb3LKtRlU-24" target="FzYCfsB_Ygolb3LKtRlU-41">
          <mxGeometry relative="1" as="geometry" />
        </mxCell>
        <mxCell id="FzYCfsB_Ygolb3LKtRlU-24" value="Сделать запрос в отдел исполнения" style="rounded=1;whiteSpace=wrap;html=1;" vertex="1" parent="1">
          <mxGeometry x="500" y="467.5" width="120" height="62.5" as="geometry" />
        </mxCell>
        <mxCell id="FzYCfsB_Ygolb3LKtRlU-30" style="edgeStyle=orthogonalEdgeStyle;rounded=0;orthogonalLoop=1;jettySize=auto;html=1;exitX=0.5;exitY=0;exitDx=0;exitDy=0;entryX=0;entryY=0.5;entryDx=0;entryDy=0;" edge="1" parent="1" source="FzYCfsB_Ygolb3LKtRlU-25" target="FzYCfsB_Ygolb3LKtRlU-27">
          <mxGeometry relative="1" as="geometry" />
        </mxCell>
        <mxCell id="FzYCfsB_Ygolb3LKtRlU-33" style="edgeStyle=orthogonalEdgeStyle;rounded=0;orthogonalLoop=1;jettySize=auto;html=1;exitX=0.5;exitY=1;exitDx=0;exitDy=0;entryX=0;entryY=0.25;entryDx=0;entryDy=0;" edge="1" parent="1" source="FzYCfsB_Ygolb3LKtRlU-25" target="FzYCfsB_Ygolb3LKtRlU-24">
          <mxGeometry relative="1" as="geometry">
            <Array as="points">
              <mxPoint x="439" y="483" />
            </Array>
          </mxGeometry>
        </mxCell>
        <mxCell id="FzYCfsB_Ygolb3LKtRlU-25" value="" style="rhombus;whiteSpace=wrap;html=1;" vertex="1" parent="1">
          <mxGeometry x="414" y="422.5" width="50" height="45" as="geometry" />
        </mxCell>
        <mxCell id="FzYCfsB_Ygolb3LKtRlU-26" value="Есть ли доступные&lt;br&gt;ресурсы" style="text;html=1;align=center;verticalAlign=middle;resizable=0;points=[];autosize=1;strokeColor=none;fillColor=none;" vertex="1" parent="1">
          <mxGeometry x="308" y="406" width="130" height="40" as="geometry" />
        </mxCell>
        <mxCell id="FzYCfsB_Ygolb3LKtRlU-31" style="edgeStyle=orthogonalEdgeStyle;rounded=0;orthogonalLoop=1;jettySize=auto;html=1;exitX=1;exitY=0.5;exitDx=0;exitDy=0;entryX=0;entryY=0.5;entryDx=0;entryDy=0;" edge="1" parent="1" source="FzYCfsB_Ygolb3LKtRlU-27" target="FzYCfsB_Ygolb3LKtRlU-28">
          <mxGeometry relative="1" as="geometry">
            <mxPoint x="680" y="375.1428571428571" as="targetPoint" />
          </mxGeometry>
        </mxCell>
        <mxCell id="FzYCfsB_Ygolb3LKtRlU-27" value="Сообщить о проблеме менеджеру" style="rounded=1;whiteSpace=wrap;html=1;" vertex="1" parent="1">
          <mxGeometry x="500" y="345" width="120" height="60" as="geometry" />
        </mxCell>
        <mxCell id="FzYCfsB_Ygolb3LKtRlU-28" value="" style="ellipse;whiteSpace=wrap;html=1;aspect=fixed;" vertex="1" parent="1">
          <mxGeometry x="660" y="360" width="30" height="30" as="geometry" />
        </mxCell>
        <mxCell id="FzYCfsB_Ygolb3LKtRlU-32" value="Нет" style="text;html=1;align=center;verticalAlign=middle;resizable=0;points=[];autosize=1;strokeColor=none;fillColor=none;" vertex="1" parent="1">
          <mxGeometry x="444" y="368" width="40" height="30" as="geometry" />
        </mxCell>
        <mxCell id="FzYCfsB_Ygolb3LKtRlU-34" value="Есть" style="text;html=1;align=center;verticalAlign=middle;resizable=0;points=[];autosize=1;strokeColor=none;fillColor=none;" vertex="1" parent="1">
          <mxGeometry x="444" y="460" width="50" height="30" as="geometry" />
        </mxCell>
        <mxCell id="FzYCfsB_Ygolb3LKtRlU-38" value="" style="shape=datastore;whiteSpace=wrap;html=1;" vertex="1" parent="1">
          <mxGeometry x="305" y="592.5" width="40" height="40" as="geometry" />
        </mxCell>
        <mxCell id="FzYCfsB_Ygolb3LKtRlU-39" value="Запросы&lt;br&gt;на поставку" style="text;html=1;align=center;verticalAlign=middle;resizable=0;points=[];autosize=1;strokeColor=none;fillColor=none;" vertex="1" parent="1">
          <mxGeometry x="280" y="628.5" width="90" height="40" as="geometry" />
        </mxCell>
        <mxCell id="FzYCfsB_Ygolb3LKtRlU-41" value="Сделать заказ&lt;br&gt;поставщику" style="rounded=1;whiteSpace=wrap;html=1;" vertex="1" parent="1">
          <mxGeometry x="500" y="570" width="120" height="62.5" as="geometry" />
        </mxCell>
        <mxCell id="FzYCfsB_Ygolb3LKtRlU-52" style="edgeStyle=orthogonalEdgeStyle;rounded=0;orthogonalLoop=1;jettySize=auto;html=1;exitX=1;exitY=0.5;exitDx=0;exitDy=0;entryX=0;entryY=0.5;entryDx=0;entryDy=0;" edge="1" parent="1" source="FzYCfsB_Ygolb3LKtRlU-42" target="FzYCfsB_Ygolb3LKtRlU-51">
          <mxGeometry relative="1" as="geometry" />
        </mxCell>
        <mxCell id="FzYCfsB_Ygolb3LKtRlU-42" value="Выполнение заказа" style="rounded=1;whiteSpace=wrap;html=1;" vertex="1" parent="1">
          <mxGeometry x="500" y="667.5" width="120" height="62.5" as="geometry" />
        </mxCell>
        <mxCell id="FzYCfsB_Ygolb3LKtRlU-45" value="" style="html=1;verticalAlign=bottom;endArrow=open;dashed=1;endSize=8;edgeStyle=elbowEdgeStyle;elbow=horizontal;curved=0;rounded=0;entryX=1;entryY=0.5;entryDx=0;entryDy=0;exitX=0;exitY=0.75;exitDx=0;exitDy=0;" edge="1" parent="1" source="FzYCfsB_Ygolb3LKtRlU-24" target="FzYCfsB_Ygolb3LKtRlU-38">
          <mxGeometry relative="1" as="geometry">
            <mxPoint x="414" y="680" as="sourcePoint" />
            <mxPoint x="259" y="770.86" as="targetPoint" />
            <Array as="points">
              <mxPoint x="420" y="560" />
              <mxPoint x="304" y="725.86" />
              <mxPoint x="260" y="750" />
            </Array>
          </mxGeometry>
        </mxCell>
        <mxCell id="FzYCfsB_Ygolb3LKtRlU-49" value="" style="html=1;verticalAlign=bottom;endArrow=open;dashed=1;endSize=8;edgeStyle=elbowEdgeStyle;elbow=horizontal;curved=0;rounded=0;exitX=1;exitY=0.7;exitDx=0;exitDy=0;entryX=0;entryY=0.5;entryDx=0;entryDy=0;" edge="1" parent="1" source="FzYCfsB_Ygolb3LKtRlU-38" target="FzYCfsB_Ygolb3LKtRlU-41">
          <mxGeometry x="0.005" relative="1" as="geometry">
            <mxPoint x="390" y="747.5" as="sourcePoint" />
            <mxPoint x="310" y="747.5" as="targetPoint" />
            <mxPoint as="offset" />
            <Array as="points">
              <mxPoint x="430" y="617.5" />
            </Array>
          </mxGeometry>
        </mxCell>
        <mxCell id="FzYCfsB_Ygolb3LKtRlU-50" value="" style="html=1;verticalAlign=bottom;endArrow=open;dashed=1;endSize=8;edgeStyle=elbowEdgeStyle;elbow=vertical;curved=0;rounded=0;entryX=0;entryY=0.5;entryDx=0;entryDy=0;exitX=1;exitY=0.5;exitDx=0;exitDy=0;" edge="1" parent="1" source="FzYCfsB_Ygolb3LKtRlU-7" target="FzYCfsB_Ygolb3LKtRlU-24">
          <mxGeometry x="0.005" relative="1" as="geometry">
            <mxPoint x="425" y="474.76" as="sourcePoint" />
            <mxPoint x="345" y="474.76" as="targetPoint" />
            <mxPoint as="offset" />
          </mxGeometry>
        </mxCell>
        <mxCell id="FzYCfsB_Ygolb3LKtRlU-51" value="" style="ellipse;whiteSpace=wrap;html=1;aspect=fixed;" vertex="1" parent="1">
          <mxGeometry x="660" y="683.75" width="30" height="30" as="geometry" />
        </mxCell>
        <mxCell id="FzYCfsB_Ygolb3LKtRlU-53" value="" style="shape=datastore;whiteSpace=wrap;html=1;" vertex="1" parent="1">
          <mxGeometry x="393" y="667.5" width="40" height="40" as="geometry" />
        </mxCell>
        <mxCell id="FzYCfsB_Ygolb3LKtRlU-54" value="Запросы&lt;br&gt;на выполнение" style="text;html=1;align=center;verticalAlign=middle;resizable=0;points=[];autosize=1;strokeColor=none;fillColor=none;" vertex="1" parent="1">
          <mxGeometry x="359" y="704.5" width="110" height="40" as="geometry" />
        </mxCell>
        <mxCell id="FzYCfsB_Ygolb3LKtRlU-55" value="" style="html=1;verticalAlign=bottom;endArrow=open;dashed=1;endSize=8;edgeStyle=elbowEdgeStyle;elbow=horizontal;curved=0;rounded=0;exitX=1;exitY=0.5;exitDx=0;exitDy=0;entryX=0;entryY=0.5;entryDx=0;entryDy=0;" edge="1" parent="1" source="FzYCfsB_Ygolb3LKtRlU-53" target="FzYCfsB_Ygolb3LKtRlU-42">
          <mxGeometry x="0.005" relative="1" as="geometry">
            <mxPoint x="494" y="648.21" as="sourcePoint" />
            <mxPoint x="414" y="648.21" as="targetPoint" />
            <mxPoint as="offset" />
            <Array as="points">
              <mxPoint x="470" y="697.5" />
            </Array>
          </mxGeometry>
        </mxCell>
        <mxCell id="FzYCfsB_Ygolb3LKtRlU-56" value="" style="html=1;verticalAlign=bottom;endArrow=open;dashed=1;endSize=8;edgeStyle=elbowEdgeStyle;elbow=horizontal;curved=0;rounded=0;exitX=0.25;exitY=1;exitDx=0;exitDy=0;entryX=1;entryY=0.3;entryDx=0;entryDy=0;" edge="1" parent="1" source="FzYCfsB_Ygolb3LKtRlU-24" target="FzYCfsB_Ygolb3LKtRlU-53">
          <mxGeometry x="0.005" relative="1" as="geometry">
            <mxPoint x="518" y="550" as="sourcePoint" />
            <mxPoint x="438" y="550" as="targetPoint" />
            <mxPoint as="offset" />
            <Array as="points">
              <mxPoint x="470" y="600" />
              <mxPoint x="460" y="630" />
            </Array>
          </mxGeometry>
        </mxCell>
        <mxCell id="FzYCfsB_Ygolb3LKtRlU-60" value="" style="rounded=0;whiteSpace=wrap;html=1;" vertex="1" parent="1">
          <mxGeometry x="60" y="330" width="25" height="430" as="geometry" />
        </mxCell>
        <mxCell id="FzYCfsB_Ygolb3LKtRlU-61" value="Обеспечение заказа" style="text;html=1;strokeColor=none;fillColor=none;align=center;verticalAlign=middle;whiteSpace=wrap;rounded=0;rotation=-90;" vertex="1" parent="1">
          <mxGeometry x="7.5" y="523" width="130" height="30" as="geometry" />
        </mxCell>
        <mxCell id="FzYCfsB_Ygolb3LKtRlU-62" value="Работник" style="text;html=1;strokeColor=none;fillColor=none;align=center;verticalAlign=middle;whiteSpace=wrap;rounded=0;rotation=-90;" vertex="1" parent="1">
          <mxGeometry x="70" y="640" width="60" height="30" as="geometry" />
        </mxCell>
        <mxCell id="FzYCfsB_Ygolb3LKtRlU-63" value="Агроном" style="text;html=1;strokeColor=none;fillColor=none;align=center;verticalAlign=middle;whiteSpace=wrap;rounded=0;rotation=-90;" vertex="1" parent="1">
          <mxGeometry x="70" y="430" width="60" height="30" as="geometry" />
        </mxCell>
      </root>
    </mxGraphModel>
  </diagram>
</mxfile>
